<svg width="49" height="50" viewBox="0 0 49 50" fill="none" xmlns="http://www.w3.org/2000/svg">
<g clip-path="url(#clip0_5851_8823)">
<path d="M12.2959 11.4111H2.46836C2.3872 11.4111 2.31982 11.4509 2.31982 11.4984V17.1181C2.31982 17.1656 2.3872 17.2054 2.46836 17.2054H12.2959C12.3311 17.2069 12.3659 17.199 12.397 17.1824L12.4016 17.1794C12.4016 17.1794 12.4046 17.1794 12.4046 17.1778C12.4307 17.164 12.446 17.1426 12.446 17.1181V13.5449V11.4976C12.446 11.4509 12.3786 11.4111 12.2959 11.4111Z" fill="#25333A"/>
<path d="M48.3338 13.7725H0.719576C0.324514 13.7725 -0.00317383 13.9669 -0.00317383 14.1966V41.4222C-0.00317383 41.6519 0.324514 41.8449 0.718811 41.8449H48.333C48.5459 41.8449 48.7112 41.7974 48.8269 41.7323C48.8269 41.7323 48.8368 41.7262 48.8429 41.7193C48.8529 41.7193 48.8575 41.7132 48.8613 41.7032C48.9777 41.6389 49.0565 41.5432 49.0565 41.4222V24.1046V14.1966C49.055 13.9669 48.7266 13.7725 48.333 13.7725" fill="#405866"/>
<path d="M48.4411 18.4092H7.82085C7.48551 18.4092 7.20605 18.5715 7.20605 18.7621V41.492C7.20605 41.6849 7.48627 41.8442 7.82085 41.8442H48.4426C48.6218 41.8442 48.7626 41.8067 48.8614 41.7493L48.8744 41.7385C48.8744 41.7385 48.889 41.7324 48.8913 41.7263C48.9916 41.6712 49.0574 41.5915 49.0574 41.4905V27.0324V18.7606C49.0551 18.5715 48.7741 18.4092 48.4411 18.4092Z" fill="#354A54"/>
<path d="M47.2237 16.1709H37.3954C37.3157 16.1709 37.2468 16.2107 37.2468 16.2582V21.8779C37.2468 21.9253 37.3157 21.9651 37.3954 21.9651H47.2237C47.2586 21.9667 47.2932 21.9587 47.324 21.9422L47.3286 21.9391C47.3286 21.9391 47.3316 21.9391 47.3316 21.9376C47.3584 21.9238 47.3737 21.9024 47.3737 21.8779V18.3055V16.2582C47.3722 16.2115 47.3048 16.1709 47.2237 16.1709Z" fill="#56787F"/>
<path d="M34.6599 27.8082C34.6599 33.31 30.2024 37.7614 24.7068 37.7614C19.2111 37.7614 14.7537 33.3093 14.7537 27.8082C14.7537 22.3095 19.2119 17.8574 24.7068 17.8574C30.2017 17.8574 34.6599 22.3095 34.6599 27.8082Z" fill="#D1D2D3"/>
<path d="M33.6478 27.8086C33.6478 32.7492 29.6428 36.7495 24.7068 36.7495C19.7708 36.7495 15.7666 32.7492 15.7666 27.8086C15.7666 22.868 19.7708 18.8691 24.7068 18.8691C29.6428 18.8691 33.6478 22.868 33.6478 27.8086Z" fill="#A7A8AC"/>
<path d="M32.6661 27.8085C32.6661 32.2062 29.1014 35.7672 24.7067 35.7672C20.3143 35.7672 16.7488 32.2078 16.7488 27.8085C16.7488 23.4115 20.3135 19.8506 24.7067 19.8506C29.1014 19.8506 32.6661 23.4115 32.6661 27.8085Z" fill="#1E75BB"/>
<path d="M31.6815 27.8078C31.6815 31.6589 28.5593 34.7865 24.7044 34.7865C20.8533 34.7865 17.7288 31.662 17.7288 27.8078C17.7288 23.9568 20.8517 20.833 24.7044 20.833C28.5555 20.833 31.6815 23.956 31.6815 27.8078Z" fill="#57C6E9"/>
<path d="M21.0502 29.8311C19.8137 27.1797 19.7586 24.3255 20.8756 21.9658C19.9092 22.5999 19.1157 23.4646 18.5667 24.4819C18.0178 25.4992 17.7307 26.6371 17.7312 27.793C17.7312 31.6441 20.8542 34.7701 24.7068 34.7701C24.7757 34.7701 24.8431 34.7602 24.912 34.7586C23.3134 33.4104 21.9651 31.7919 21.0532 29.8311" fill="#27A8E0"/>
<path d="M46.8869 15.7148H37.7339C37.6565 15.7148 37.5938 15.7516 37.5938 15.796V21.0306C37.5938 21.075 37.6565 21.1117 37.7339 21.1117H46.8869C46.9189 21.1131 46.9507 21.1057 46.9788 21.0903L46.9841 21.0872C46.9841 21.0872 46.988 21.0872 46.988 21.0857C47.0117 21.0735 47.0262 21.0535 47.0262 21.0306V17.7024V15.796C47.0262 15.7516 46.9635 15.7148 46.8869 15.7148Z" fill="#57C6E9"/>
</g>
<defs>
<clipPath id="clip0_5851_8823">
<rect width="49" height="49" fill="white" transform="translate(0 0.5)"/>
</clipPath>
</defs>
</svg>
