<svg width="48" height="49" viewBox="0 0 48 49" fill="none" xmlns="http://www.w3.org/2000/svg">
<path d="M41 42.8086H13C10.8 42.8086 9 41.0086 9 38.8086V18.8086C9 16.6086 10.8 14.8086 13 14.8086H41C43.2 14.8086 45 16.6086 45 18.8086V38.8086C45 41.0086 43.2 42.8086 41 42.8086Z" fill="#E65100"/>
<path d="M35 36.8086H7C4.8 36.8086 3 35.0086 3 32.8086V12.8086C3 10.6086 4.8 8.80859 7 8.80859H35C37.2 8.80859 39 10.6086 39 12.8086V32.8086C39 35.0086 37.2 36.8086 35 36.8086Z" fill="#F57C00"/>
<path d="M30 19.8086C31.6569 19.8086 33 18.4654 33 16.8086C33 15.1517 31.6569 13.8086 30 13.8086C28.3431 13.8086 27 15.1517 27 16.8086C27 18.4654 28.3431 19.8086 30 19.8086Z" fill="#FFF9C4"/>
<path d="M17 18.709L8 31.809H26L17 18.709Z" fill="#942A09"/>
<path d="M28 24.3086L22 31.8086H34L28 24.3086Z" fill="#BF360C"/>
</svg>
